<mxfile host="www.draw.io" modified="2019-12-12T11:17:50.204Z" agent="Mozilla/5.0 (Windows NT 10.0; Win64; x64; rv:71.0) Gecko/20100101 Firefox/71.0" etag="MtjGyORVhGjK9YZ_Rlpu" version="12.3.9" type="github" pages="1">
  <diagram id="rLhFOGz8F_Q1n8mMUSkF" name="第 1 页">
    <mxGraphModel dx="2821" dy="619" grid="0" gridSize="10" guides="1" tooltips="1" connect="1" arrows="0" fold="1" page="0" pageScale="1" pageWidth="827" pageHeight="1169" background="none" math="0" shadow="1">
      <root>
        <mxCell id="0"/>
        <mxCell id="1" parent="0"/>
        <mxCell id="PEYyBf2W47rmoljX9HjP-52" value="" style="rounded=1;whiteSpace=wrap;html=1;strokeColor=#000000;fillColor=#FFFFFF;dashed=1;strokeWidth=3;" parent="1" vertex="1">
          <mxGeometry x="-656" y="12" width="246" height="420" as="geometry"/>
        </mxCell>
        <mxCell id="PEYyBf2W47rmoljX9HjP-7" value="" style="rounded=1;whiteSpace=wrap;html=1;strokeColor=#000000;fillColor=#FFFFFF;dashed=1;strokeWidth=3;" parent="1" vertex="1">
          <mxGeometry x="-1488.5" y="11.5" width="460" height="420" as="geometry"/>
        </mxCell>
        <mxCell id="PEYyBf2W47rmoljX9HjP-16" style="edgeStyle=orthogonalEdgeStyle;rounded=0;orthogonalLoop=1;jettySize=auto;html=1;exitX=1;exitY=0.5;exitDx=0;exitDy=0;entryX=0;entryY=0.5;entryDx=0;entryDy=0;" parent="1" source="PEYyBf2W47rmoljX9HjP-1" target="PEYyBf2W47rmoljX9HjP-6" edge="1">
          <mxGeometry relative="1" as="geometry">
            <Array as="points">
              <mxPoint x="-1338.5" y="211.5"/>
              <mxPoint x="-1338.5" y="161.5"/>
              <mxPoint x="-1158.5" y="161.5"/>
              <mxPoint x="-1158.5" y="211.5"/>
            </Array>
          </mxGeometry>
        </mxCell>
        <mxCell id="PEYyBf2W47rmoljX9HjP-1" value="&lt;div&gt;&lt;font style=&quot;font-size: 16px&quot;&gt;静态环境数据&lt;/font&gt;&lt;/div&gt;&lt;div&gt;&lt;font style=&quot;font-size: 16px&quot;&gt;&lt;font style=&quot;font-size: 16px&quot;&gt;参数化生成&lt;/font&gt;&lt;br&gt;&lt;/font&gt;&lt;/div&gt;" style="rounded=0;whiteSpace=wrap;html=1;fillColor=#FFFFCC;" parent="1" vertex="1">
          <mxGeometry x="-1468.5" y="181.5" width="120" height="60" as="geometry"/>
        </mxCell>
        <mxCell id="PEYyBf2W47rmoljX9HjP-2" value="&lt;div&gt;&lt;font style=&quot;font-size: 16px&quot;&gt;参数化&lt;/font&gt;&lt;/div&gt;&lt;div&gt;&lt;font style=&quot;font-size: 16px&quot;&gt;城市模型&lt;/font&gt;&lt;/div&gt;" style="ellipse;whiteSpace=wrap;html=1;fillColor=#CCFFCC;" parent="1" vertex="1">
          <mxGeometry x="-1468.5" y="51.5" width="120" height="80" as="geometry"/>
        </mxCell>
        <mxCell id="PEYyBf2W47rmoljX9HjP-3" value="&lt;div&gt;&lt;font style=&quot;font-size: 14px&quot;&gt;&lt;font style=&quot;font-size: 16px&quot;&gt;参数化&lt;/font&gt;&lt;/font&gt;&lt;/div&gt;&lt;div&gt;&lt;font style=&quot;font-size: 14px&quot;&gt;&lt;font style=&quot;font-size: 16px&quot;&gt;道路模型&lt;/font&gt;&lt;/font&gt;&lt;/div&gt;" style="ellipse;whiteSpace=wrap;html=1;fillColor=#CCFFCC;" parent="1" vertex="1">
          <mxGeometry x="-1468.5" y="291.5" width="120" height="80" as="geometry"/>
        </mxCell>
        <mxCell id="PEYyBf2W47rmoljX9HjP-4" value="&lt;div&gt;&lt;font style=&quot;font-size: 16px&quot;&gt;参数化&lt;/font&gt;&lt;/div&gt;&lt;div&gt;&lt;font style=&quot;font-size: 16px&quot;&gt;交通流模型&lt;/font&gt;&lt;/div&gt;" style="ellipse;whiteSpace=wrap;html=1;fillColor=#CCFFCC;" parent="1" vertex="1">
          <mxGeometry x="-1308.5" y="291.5" width="120" height="80" as="geometry"/>
        </mxCell>
        <mxCell id="PEYyBf2W47rmoljX9HjP-5" value="&lt;div&gt;&lt;font style=&quot;font-size: 16px&quot;&gt;动态环境数据&lt;/font&gt;&lt;/div&gt;&lt;div&gt;&lt;font style=&quot;font-size: 16px&quot;&gt;&lt;font style=&quot;font-size: 16px&quot;&gt;参数化生成&lt;/font&gt;&lt;br&gt;&lt;/font&gt;&lt;/div&gt;" style="rounded=0;whiteSpace=wrap;html=1;fillColor=#FFFFCC;" parent="1" vertex="1">
          <mxGeometry x="-1308.5" y="181.5" width="120" height="60" as="geometry"/>
        </mxCell>
        <mxCell id="PEYyBf2W47rmoljX9HjP-6" value="&lt;div&gt;&lt;font style=&quot;font-size: 16px&quot;&gt;仿真平台&lt;/font&gt;&lt;/div&gt;&lt;div&gt;&lt;font size=&quot;3&quot;&gt;数据接口&lt;/font&gt;&lt;/div&gt;" style="ellipse;whiteSpace=wrap;html=1;aspect=fixed;fillColor=#E6FFCC;" parent="1" vertex="1">
          <mxGeometry x="-1138.5" y="171.5" width="80" height="80" as="geometry"/>
        </mxCell>
        <mxCell id="PEYyBf2W47rmoljX9HjP-8" value="&lt;div&gt;&lt;b&gt;&lt;font style=&quot;font-size: 18px&quot;&gt;仿真平台&lt;/font&gt;&lt;/b&gt;&lt;/div&gt;&lt;b&gt;&lt;font style=&quot;font-size: 18px&quot;&gt;场景解决方案&lt;/font&gt;&lt;/b&gt;" style="text;html=1;strokeColor=none;fillColor=none;align=center;verticalAlign=middle;whiteSpace=wrap;rounded=0;dashed=1;" parent="1" vertex="1">
          <mxGeometry x="-1198.5" y="31.5" width="160" height="20" as="geometry"/>
        </mxCell>
        <mxCell id="PEYyBf2W47rmoljX9HjP-10" value="" style="endArrow=classic;html=1;exitX=0.5;exitY=1;exitDx=0;exitDy=0;entryX=0.5;entryY=0;entryDx=0;entryDy=0;" parent="1" source="PEYyBf2W47rmoljX9HjP-2" target="PEYyBf2W47rmoljX9HjP-1" edge="1">
          <mxGeometry width="50" height="50" relative="1" as="geometry">
            <mxPoint x="-1488.5" y="461.5" as="sourcePoint"/>
            <mxPoint x="-1438.5" y="411.5" as="targetPoint"/>
          </mxGeometry>
        </mxCell>
        <mxCell id="PEYyBf2W47rmoljX9HjP-11" value="" style="endArrow=classic;html=1;exitX=0.5;exitY=0;exitDx=0;exitDy=0;" parent="1" source="PEYyBf2W47rmoljX9HjP-3" target="PEYyBf2W47rmoljX9HjP-1" edge="1">
          <mxGeometry width="50" height="50" relative="1" as="geometry">
            <mxPoint x="-1428.5" y="301.5" as="sourcePoint"/>
            <mxPoint x="-1378.5" y="251.5" as="targetPoint"/>
          </mxGeometry>
        </mxCell>
        <mxCell id="PEYyBf2W47rmoljX9HjP-12" value="" style="endArrow=classic;html=1;exitX=1;exitY=0.5;exitDx=0;exitDy=0;entryX=0;entryY=0.5;entryDx=0;entryDy=0;" parent="1" source="PEYyBf2W47rmoljX9HjP-3" target="PEYyBf2W47rmoljX9HjP-4" edge="1">
          <mxGeometry width="50" height="50" relative="1" as="geometry">
            <mxPoint x="-1348.5" y="371.5" as="sourcePoint"/>
            <mxPoint x="-1298.5" y="321.5" as="targetPoint"/>
          </mxGeometry>
        </mxCell>
        <mxCell id="PEYyBf2W47rmoljX9HjP-14" value="" style="endArrow=classic;html=1;exitX=0.5;exitY=0;exitDx=0;exitDy=0;entryX=0.5;entryY=1;entryDx=0;entryDy=0;" parent="1" source="PEYyBf2W47rmoljX9HjP-4" target="PEYyBf2W47rmoljX9HjP-5" edge="1">
          <mxGeometry width="50" height="50" relative="1" as="geometry">
            <mxPoint x="-1268.5" y="301.5" as="sourcePoint"/>
            <mxPoint x="-1218.5" y="251.5" as="targetPoint"/>
          </mxGeometry>
        </mxCell>
        <mxCell id="PEYyBf2W47rmoljX9HjP-18" value="" style="endArrow=classic;html=1;entryX=0;entryY=0.5;entryDx=0;entryDy=0;" parent="1" target="PEYyBf2W47rmoljX9HjP-6" edge="1">
          <mxGeometry width="50" height="50" relative="1" as="geometry">
            <mxPoint x="-1188.5" y="211.5" as="sourcePoint"/>
            <mxPoint x="-1138.5" y="161.5" as="targetPoint"/>
          </mxGeometry>
        </mxCell>
        <mxCell id="PEYyBf2W47rmoljX9HjP-19" value="" style="rounded=1;whiteSpace=wrap;html=1;strokeColor=#000000;fillColor=#FFFFFF;dashed=1;strokeWidth=3;" parent="1" vertex="1">
          <mxGeometry x="-968.5" y="11.5" width="250" height="420" as="geometry"/>
        </mxCell>
        <mxCell id="PEYyBf2W47rmoljX9HjP-20" value="&lt;b&gt;&lt;font style=&quot;font-size: 18px&quot;&gt;多级数据生成方法&lt;/font&gt;&lt;/b&gt;" style="text;html=1;strokeColor=none;fillColor=none;align=center;verticalAlign=middle;whiteSpace=wrap;rounded=0;dashed=1;" parent="1" vertex="1">
          <mxGeometry x="-928.5" y="16.5" width="170" height="50" as="geometry"/>
        </mxCell>
        <mxCell id="PEYyBf2W47rmoljX9HjP-21" value="&lt;div&gt;&lt;font style=&quot;font-size: 14px&quot;&gt;&lt;font style=&quot;font-size: 18px&quot;&gt;&lt;b&gt;数据级决策输入&lt;/b&gt;&lt;/font&gt;&lt;br&gt;&lt;/font&gt;&lt;/div&gt;&lt;div&gt;&lt;font style=&quot;font-size: 14px&quot;&gt;LIDAR点云、视频流、回波、&lt;/font&gt;&lt;/div&gt;&lt;div&gt;&lt;font style=&quot;font-size: 14px&quot;&gt;导航信息、车辆底盘信息等&lt;br&gt;&lt;/font&gt;&lt;/div&gt;" style="rounded=1;whiteSpace=wrap;html=1;strokeColor=#000000;strokeWidth=2;fillColor=#FFFF99;fontSize=16;" parent="1" vertex="1">
          <mxGeometry x="-951" y="71.5" width="215" height="80" as="geometry"/>
        </mxCell>
        <mxCell id="PEYyBf2W47rmoljX9HjP-22" value="&lt;div&gt;&lt;font style=&quot;font-size: 14px&quot;&gt;&lt;font style=&quot;font-size: 18px&quot;&gt;&lt;b&gt;特征级决策输入&lt;/b&gt;&lt;/font&gt;&lt;br&gt;&lt;/font&gt;&lt;/div&gt;&lt;div&gt;&lt;font style=&quot;font-size: 16px&quot;&gt;可通行区域&lt;/font&gt;&lt;/div&gt;&lt;div&gt;&lt;font style=&quot;font-size: 14px&quot;&gt;&lt;font size=&quot;3&quot;&gt;环境深度分布、高差分布等&lt;/font&gt;&lt;br&gt;&lt;/font&gt;&lt;/div&gt;" style="rounded=1;whiteSpace=wrap;html=1;strokeColor=#000000;strokeWidth=2;fillColor=#FFFF99;" parent="1" vertex="1">
          <mxGeometry x="-951" y="171.5" width="215" height="80" as="geometry"/>
        </mxCell>
        <mxCell id="PEYyBf2W47rmoljX9HjP-23" value="&lt;div&gt;&lt;font style=&quot;font-size: 14px&quot;&gt;&lt;font style=&quot;font-size: 18px&quot;&gt;&lt;b&gt;对象级决策输入&lt;/b&gt;&lt;/font&gt;&lt;br&gt;&lt;/font&gt;&lt;/div&gt;&lt;div&gt;&lt;font style=&quot;font-size: 16px&quot;&gt;静动态对象列表&lt;/font&gt;&lt;/div&gt;&lt;div&gt;&lt;font size=&quot;3&quot;&gt;车道线等&lt;/font&gt;&lt;br&gt;&lt;/div&gt;" style="rounded=1;whiteSpace=wrap;html=1;strokeColor=#000000;strokeWidth=2;fillColor=#FFFF99;" parent="1" vertex="1">
          <mxGeometry x="-951" y="291.5" width="215" height="80" as="geometry"/>
        </mxCell>
        <mxCell id="PEYyBf2W47rmoljX9HjP-25" value="&lt;b&gt;&lt;font style=&quot;font-size: 18px&quot;&gt;多类型ICU&lt;/font&gt;&lt;/b&gt;" style="text;html=1;strokeColor=none;fillColor=none;align=center;verticalAlign=middle;whiteSpace=wrap;rounded=0;dashed=1;" parent="1" vertex="1">
          <mxGeometry x="-628.5" y="16.5" width="170" height="50" as="geometry"/>
        </mxCell>
        <mxCell id="PEYyBf2W47rmoljX9HjP-27" value="&lt;div&gt;&lt;font style=&quot;font-size: 24px&quot;&gt;ICU&lt;/font&gt;&lt;/div&gt;&lt;div&gt;&lt;font style=&quot;font-size: 24px&quot;&gt;智能控制单元&lt;br&gt;&lt;/font&gt;&lt;/div&gt;" style="rounded=1;whiteSpace=wrap;html=1;strokeColor=#000000;strokeWidth=2;fillColor=#FFCE9F;" parent="1" vertex="1">
          <mxGeometry x="-613.5" y="171.5" width="165" height="80" as="geometry"/>
        </mxCell>
        <mxCell id="PEYyBf2W47rmoljX9HjP-29" value="" style="edgeStyle=elbowEdgeStyle;elbow=horizontal;endArrow=classic;html=1;entryX=0;entryY=0.5;entryDx=0;entryDy=0;exitX=1;exitY=0.5;exitDx=0;exitDy=0;" parent="1" source="PEYyBf2W47rmoljX9HjP-6" target="PEYyBf2W47rmoljX9HjP-21" edge="1">
          <mxGeometry width="50" height="50" relative="1" as="geometry">
            <mxPoint x="-1028.5" y="231.5" as="sourcePoint"/>
            <mxPoint x="-978.5" y="181.5" as="targetPoint"/>
          </mxGeometry>
        </mxCell>
        <mxCell id="PEYyBf2W47rmoljX9HjP-30" value="" style="edgeStyle=elbowEdgeStyle;elbow=horizontal;endArrow=classic;html=1;entryX=0;entryY=0.5;entryDx=0;entryDy=0;" parent="1" source="PEYyBf2W47rmoljX9HjP-6" target="PEYyBf2W47rmoljX9HjP-23" edge="1">
          <mxGeometry width="50" height="50" relative="1" as="geometry">
            <mxPoint x="-1028.5" y="231.5" as="sourcePoint"/>
            <mxPoint x="-968.5" y="221.5" as="targetPoint"/>
          </mxGeometry>
        </mxCell>
        <mxCell id="PEYyBf2W47rmoljX9HjP-31" value="" style="endArrow=classic;html=1;entryX=0;entryY=0.5;entryDx=0;entryDy=0;" parent="1" source="PEYyBf2W47rmoljX9HjP-6" target="PEYyBf2W47rmoljX9HjP-22" edge="1">
          <mxGeometry width="50" height="50" relative="1" as="geometry">
            <mxPoint x="-1058.5" y="261.5" as="sourcePoint"/>
            <mxPoint x="-987.7893218813452" y="211.5" as="targetPoint"/>
          </mxGeometry>
        </mxCell>
        <mxCell id="PEYyBf2W47rmoljX9HjP-34" value="" style="endArrow=classic;html=1;entryX=0;entryY=0.5;entryDx=0;entryDy=0;" parent="1" edge="1">
          <mxGeometry width="50" height="50" relative="1" as="geometry">
            <mxPoint x="-736" y="211" as="sourcePoint"/>
            <mxPoint x="-613.5" y="211" as="targetPoint"/>
          </mxGeometry>
        </mxCell>
        <mxCell id="PEYyBf2W47rmoljX9HjP-45" value="" style="edgeStyle=elbowEdgeStyle;elbow=vertical;endArrow=classic;html=1;" parent="1" edge="1">
          <mxGeometry width="50" height="50" relative="1" as="geometry">
            <mxPoint x="-736" y="331.5" as="sourcePoint"/>
            <mxPoint x="-636" y="211.5" as="targetPoint"/>
            <Array as="points">
              <mxPoint x="-643" y="275.5"/>
            </Array>
          </mxGeometry>
        </mxCell>
        <mxCell id="PEYyBf2W47rmoljX9HjP-48" value="" style="edgeStyle=elbowEdgeStyle;elbow=vertical;endArrow=classic;html=1;exitX=1;exitY=0.5;exitDx=0;exitDy=0;" parent="1" source="PEYyBf2W47rmoljX9HjP-21" edge="1">
          <mxGeometry width="50" height="50" relative="1" as="geometry">
            <mxPoint x="-731" y="150.5" as="sourcePoint"/>
            <mxPoint x="-635" y="207.5" as="targetPoint"/>
          </mxGeometry>
        </mxCell>
        <mxCell id="PEYyBf2W47rmoljX9HjP-53" value="" style="rounded=1;whiteSpace=wrap;html=1;strokeColor=#000000;strokeWidth=2;fillColor=#FFFFFF;dashed=1;" parent="1" vertex="1">
          <mxGeometry x="-1488.5" y="449" width="1079" height="134" as="geometry"/>
        </mxCell>
        <mxCell id="PEYyBf2W47rmoljX9HjP-54" value="&lt;div&gt;&lt;font style=&quot;font-size: 24px&quot;&gt;外界环境信息&lt;/font&gt;&lt;/div&gt;&lt;div&gt;&lt;font style=&quot;font-size: 24px&quot;&gt;车辆自身状态&lt;br&gt;&lt;/font&gt;&lt;/div&gt;" style="rounded=0;whiteSpace=wrap;html=1;dashed=1;strokeColor=#000000;strokeWidth=2;fillColor=#CCFFCC;" parent="1" vertex="1">
          <mxGeometry x="-1468.5" y="461" width="408" height="107" as="geometry"/>
        </mxCell>
        <mxCell id="PEYyBf2W47rmoljX9HjP-55" value="&lt;div&gt;&lt;font style=&quot;font-size: 24px&quot;&gt;LIDAR（SDK）&lt;/font&gt;&lt;/div&gt;&lt;div&gt;&lt;font style=&quot;font-size: 24px&quot;&gt;Carmera （ECU）&lt;br&gt;&lt;/font&gt;&lt;/div&gt;&lt;div&gt;&lt;font style=&quot;font-size: 24px&quot;&gt;Radar、IMU、GNSS&lt;br&gt;&lt;/font&gt;&lt;/div&gt;" style="rounded=0;whiteSpace=wrap;html=1;dashed=1;strokeColor=#000000;strokeWidth=2;fillColor=#FFFF99;" parent="1" vertex="1">
          <mxGeometry x="-968.5" y="461" width="253" height="107" as="geometry"/>
        </mxCell>
        <mxCell id="PEYyBf2W47rmoljX9HjP-56" value="&lt;div&gt;&lt;font style=&quot;font-size: 24px&quot;&gt;MAX4、ProAI&lt;/font&gt;&lt;/div&gt;&lt;div&gt;&lt;font style=&quot;font-size: 24px&quot;&gt;TievICU、&lt;/font&gt;&lt;/div&gt;&lt;div&gt;&lt;font style=&quot;font-size: 24px&quot;&gt;奇瑞APA控制器等&lt;br&gt;&lt;/font&gt;&lt;/div&gt;" style="rounded=1;whiteSpace=wrap;html=1;strokeColor=#000000;strokeWidth=2;fillColor=#FFCE9F;dashed=1;" parent="1" vertex="1">
          <mxGeometry x="-646.5" y="461" width="225" height="105" as="geometry"/>
        </mxCell>
        <mxCell id="PEYyBf2W47rmoljX9HjP-57" value="" style="endArrow=classic;html=1;entryX=0;entryY=0.5;entryDx=0;entryDy=0;exitX=1;exitY=0.5;exitDx=0;exitDy=0;" parent="1" source="PEYyBf2W47rmoljX9HjP-54" target="PEYyBf2W47rmoljX9HjP-55" edge="1">
          <mxGeometry width="50" height="50" relative="1" as="geometry">
            <mxPoint x="-1078.5" y="553" as="sourcePoint"/>
            <mxPoint x="-1028.5" y="503" as="targetPoint"/>
          </mxGeometry>
        </mxCell>
        <mxCell id="PEYyBf2W47rmoljX9HjP-58" value="" style="endArrow=classic;html=1;exitX=1;exitY=0.5;exitDx=0;exitDy=0;entryX=0;entryY=0.5;entryDx=0;entryDy=0;" parent="1" source="PEYyBf2W47rmoljX9HjP-55" target="PEYyBf2W47rmoljX9HjP-56" edge="1">
          <mxGeometry width="50" height="50" relative="1" as="geometry">
            <mxPoint x="-690" y="550" as="sourcePoint"/>
            <mxPoint x="-640" y="500" as="targetPoint"/>
          </mxGeometry>
        </mxCell>
        <mxCell id="PEYyBf2W47rmoljX9HjP-59" value="&lt;font style=&quot;font-size: 18px&quot;&gt;不同类型的ICU使用不同级别的决策输入组合&lt;/font&gt;" style="text;html=1;strokeColor=none;fillColor=none;align=center;verticalAlign=middle;whiteSpace=wrap;rounded=0;dashed=1;" parent="1" vertex="1">
          <mxGeometry x="-626.5" y="321.5" width="191" height="20" as="geometry"/>
        </mxCell>
      </root>
    </mxGraphModel>
  </diagram>
</mxfile>
